<mxfile host="app.diagrams.net" modified="2021-09-12T06:45:46.221Z" agent="5.0 (Windows NT 10.0; Win64; x64) AppleWebKit/537.36 (KHTML, like Gecko) Chrome/92.0.4515.159 Safari/537.36 OPR/78.0.4093.184" etag="qphkwkaHaqOxer_SyjLT" version="15.1.4" type="github">
  <diagram name="Page-1" id="9f46799a-70d6-7492-0946-bef42562c5a5">
    <mxGraphModel dx="828" dy="452" grid="1" gridSize="10" guides="1" tooltips="1" connect="1" arrows="1" fold="1" page="1" pageScale="1" pageWidth="1100" pageHeight="850" background="none" math="0" shadow="0">
      <root>
        <mxCell id="0" />
        <mxCell id="1" parent="0" />
        <mxCell id="lGMY2SIQka-8R2fZuXJN-4" value="" style="edgeStyle=orthogonalEdgeStyle;rounded=0;orthogonalLoop=1;jettySize=auto;html=1;" edge="1" parent="1" source="JDeKZ6o-c1EQQPIwSbDQ-1" target="lGMY2SIQka-8R2fZuXJN-3">
          <mxGeometry relative="1" as="geometry" />
        </mxCell>
        <mxCell id="JDeKZ6o-c1EQQPIwSbDQ-1" value="Inicio" style="ellipse;whiteSpace=wrap;html=1;" parent="1" vertex="1">
          <mxGeometry x="264" y="10" width="120" height="50" as="geometry" />
        </mxCell>
        <mxCell id="lGMY2SIQka-8R2fZuXJN-7" value="" style="edgeStyle=orthogonalEdgeStyle;rounded=0;orthogonalLoop=1;jettySize=auto;html=1;" edge="1" parent="1" source="lGMY2SIQka-8R2fZuXJN-3" target="lGMY2SIQka-8R2fZuXJN-5">
          <mxGeometry relative="1" as="geometry" />
        </mxCell>
        <mxCell id="lGMY2SIQka-8R2fZuXJN-3" value="Informe a data do evento" style="shape=display;whiteSpace=wrap;html=1;" vertex="1" parent="1">
          <mxGeometry x="269" y="100" width="110" height="40" as="geometry" />
        </mxCell>
        <mxCell id="lGMY2SIQka-8R2fZuXJN-10" value="" style="edgeStyle=orthogonalEdgeStyle;rounded=0;orthogonalLoop=1;jettySize=auto;html=1;" edge="1" parent="1" source="lGMY2SIQka-8R2fZuXJN-5" target="lGMY2SIQka-8R2fZuXJN-9">
          <mxGeometry relative="1" as="geometry" />
        </mxCell>
        <mxCell id="lGMY2SIQka-8R2fZuXJN-5" value="&lt;div&gt;&lt;span&gt;Insira data evento&lt;/span&gt;&lt;/div&gt;" style="shape=manualInput;whiteSpace=wrap;html=1;align=right;" vertex="1" parent="1">
          <mxGeometry x="140" y="185" width="80" height="70" as="geometry" />
        </mxCell>
        <mxCell id="lGMY2SIQka-8R2fZuXJN-12" value="" style="edgeStyle=orthogonalEdgeStyle;rounded=0;orthogonalLoop=1;jettySize=auto;html=1;" edge="1" parent="1" source="lGMY2SIQka-8R2fZuXJN-9" target="lGMY2SIQka-8R2fZuXJN-11">
          <mxGeometry relative="1" as="geometry" />
        </mxCell>
        <mxCell id="lGMY2SIQka-8R2fZuXJN-15" value="" style="edgeStyle=orthogonalEdgeStyle;rounded=0;orthogonalLoop=1;jettySize=auto;html=1;" edge="1" parent="1" source="lGMY2SIQka-8R2fZuXJN-9" target="lGMY2SIQka-8R2fZuXJN-14">
          <mxGeometry relative="1" as="geometry" />
        </mxCell>
        <mxCell id="lGMY2SIQka-8R2fZuXJN-9" value="&lt;font style=&quot;font-size: 10px&quot;&gt;data evento &amp;lt; data atual?&lt;/font&gt;" style="rhombus;whiteSpace=wrap;html=1;align=center;" vertex="1" parent="1">
          <mxGeometry x="310" y="180" width="80" height="80" as="geometry" />
        </mxCell>
        <mxCell id="lGMY2SIQka-8R2fZuXJN-36" value="" style="edgeStyle=orthogonalEdgeStyle;rounded=0;orthogonalLoop=1;jettySize=auto;html=1;" edge="1" parent="1" source="lGMY2SIQka-8R2fZuXJN-11" target="lGMY2SIQka-8R2fZuXJN-28">
          <mxGeometry relative="1" as="geometry" />
        </mxCell>
        <mxCell id="lGMY2SIQka-8R2fZuXJN-11" value="Data invalida" style="shape=display;whiteSpace=wrap;html=1;" vertex="1" parent="1">
          <mxGeometry x="480" y="200" width="80" height="40" as="geometry" />
        </mxCell>
        <mxCell id="lGMY2SIQka-8R2fZuXJN-18" value="" style="edgeStyle=orthogonalEdgeStyle;rounded=0;orthogonalLoop=1;jettySize=auto;html=1;" edge="1" parent="1" source="lGMY2SIQka-8R2fZuXJN-13" target="lGMY2SIQka-8R2fZuXJN-17">
          <mxGeometry relative="1" as="geometry" />
        </mxCell>
        <mxCell id="lGMY2SIQka-8R2fZuXJN-13" value="Insere idade" style="shape=manualInput;whiteSpace=wrap;html=1;" vertex="1" parent="1">
          <mxGeometry x="140" y="300" width="80" height="60" as="geometry" />
        </mxCell>
        <mxCell id="lGMY2SIQka-8R2fZuXJN-16" value="" style="edgeStyle=orthogonalEdgeStyle;rounded=0;orthogonalLoop=1;jettySize=auto;html=1;" edge="1" parent="1" source="lGMY2SIQka-8R2fZuXJN-14" target="lGMY2SIQka-8R2fZuXJN-13">
          <mxGeometry relative="1" as="geometry" />
        </mxCell>
        <mxCell id="lGMY2SIQka-8R2fZuXJN-14" value="Informe sua idade" style="shape=display;whiteSpace=wrap;html=1;" vertex="1" parent="1">
          <mxGeometry x="310" y="310" width="80" height="40" as="geometry" />
        </mxCell>
        <mxCell id="lGMY2SIQka-8R2fZuXJN-21" value="" style="edgeStyle=orthogonalEdgeStyle;rounded=0;orthogonalLoop=1;jettySize=auto;html=1;" edge="1" parent="1" source="lGMY2SIQka-8R2fZuXJN-17" target="lGMY2SIQka-8R2fZuXJN-19">
          <mxGeometry relative="1" as="geometry" />
        </mxCell>
        <mxCell id="lGMY2SIQka-8R2fZuXJN-23" value="" style="edgeStyle=orthogonalEdgeStyle;rounded=0;orthogonalLoop=1;jettySize=auto;html=1;" edge="1" parent="1" source="lGMY2SIQka-8R2fZuXJN-17" target="lGMY2SIQka-8R2fZuXJN-22">
          <mxGeometry relative="1" as="geometry" />
        </mxCell>
        <mxCell id="lGMY2SIQka-8R2fZuXJN-17" value="Idade &amp;gt;18" style="rhombus;whiteSpace=wrap;html=1;" vertex="1" parent="1">
          <mxGeometry x="140" y="430" width="80" height="80" as="geometry" />
        </mxCell>
        <mxCell id="lGMY2SIQka-8R2fZuXJN-35" value="" style="edgeStyle=orthogonalEdgeStyle;rounded=0;orthogonalLoop=1;jettySize=auto;html=1;" edge="1" parent="1" source="lGMY2SIQka-8R2fZuXJN-19" target="lGMY2SIQka-8R2fZuXJN-28">
          <mxGeometry relative="1" as="geometry" />
        </mxCell>
        <mxCell id="lGMY2SIQka-8R2fZuXJN-19" value="Idade n達o permitida" style="shape=display;whiteSpace=wrap;html=1;" vertex="1" parent="1">
          <mxGeometry x="320" y="450" width="80" height="40" as="geometry" />
        </mxCell>
        <mxCell id="lGMY2SIQka-8R2fZuXJN-34" value="" style="edgeStyle=orthogonalEdgeStyle;rounded=0;orthogonalLoop=1;jettySize=auto;html=1;" edge="1" parent="1" source="lGMY2SIQka-8R2fZuXJN-20" target="lGMY2SIQka-8R2fZuXJN-28">
          <mxGeometry relative="1" as="geometry" />
        </mxCell>
        <mxCell id="lGMY2SIQka-8R2fZuXJN-20" value="Limite de participantes excedido" style="shape=display;whiteSpace=wrap;html=1;" vertex="1" parent="1">
          <mxGeometry x="310" y="630" width="80" height="40" as="geometry" />
        </mxCell>
        <mxCell id="lGMY2SIQka-8R2fZuXJN-24" value="" style="edgeStyle=orthogonalEdgeStyle;rounded=0;orthogonalLoop=1;jettySize=auto;html=1;" edge="1" parent="1" source="lGMY2SIQka-8R2fZuXJN-22" target="lGMY2SIQka-8R2fZuXJN-20">
          <mxGeometry relative="1" as="geometry" />
        </mxCell>
        <mxCell id="lGMY2SIQka-8R2fZuXJN-31" value="" style="edgeStyle=orthogonalEdgeStyle;rounded=0;orthogonalLoop=1;jettySize=auto;html=1;" edge="1" parent="1" source="lGMY2SIQka-8R2fZuXJN-22" target="lGMY2SIQka-8R2fZuXJN-30">
          <mxGeometry relative="1" as="geometry" />
        </mxCell>
        <mxCell id="lGMY2SIQka-8R2fZuXJN-22" value="Numero participantes =&amp;gt; 100" style="rhombus;whiteSpace=wrap;html=1;" vertex="1" parent="1">
          <mxGeometry x="140" y="610" width="80" height="80" as="geometry" />
        </mxCell>
        <mxCell id="lGMY2SIQka-8R2fZuXJN-29" value="" style="edgeStyle=orthogonalEdgeStyle;rounded=0;orthogonalLoop=1;jettySize=auto;html=1;" edge="1" parent="1" source="lGMY2SIQka-8R2fZuXJN-26" target="lGMY2SIQka-8R2fZuXJN-28">
          <mxGeometry relative="1" as="geometry" />
        </mxCell>
        <mxCell id="lGMY2SIQka-8R2fZuXJN-26" value="Listar participantes" style="shape=display;whiteSpace=wrap;html=1;" vertex="1" parent="1">
          <mxGeometry x="670" y="450" width="80" height="40" as="geometry" />
        </mxCell>
        <mxCell id="lGMY2SIQka-8R2fZuXJN-28" value="Fim" style="ellipse;whiteSpace=wrap;html=1;" vertex="1" parent="1">
          <mxGeometry x="460" y="440" width="120" height="60" as="geometry" />
        </mxCell>
        <mxCell id="lGMY2SIQka-8R2fZuXJN-33" value="" style="edgeStyle=orthogonalEdgeStyle;rounded=0;orthogonalLoop=1;jettySize=auto;html=1;" edge="1" parent="1" source="lGMY2SIQka-8R2fZuXJN-30" target="lGMY2SIQka-8R2fZuXJN-26">
          <mxGeometry relative="1" as="geometry" />
        </mxCell>
        <mxCell id="lGMY2SIQka-8R2fZuXJN-30" value="Cadastro realizado" style="shape=display;whiteSpace=wrap;html=1;" vertex="1" parent="1">
          <mxGeometry x="140" y="750" width="80" height="40" as="geometry" />
        </mxCell>
        <mxCell id="lGMY2SIQka-8R2fZuXJN-37" value="N達o" style="text;html=1;align=center;verticalAlign=middle;resizable=0;points=[];autosize=1;strokeColor=none;fillColor=none;" vertex="1" parent="1">
          <mxGeometry x="140" y="710" width="40" height="20" as="geometry" />
        </mxCell>
        <mxCell id="lGMY2SIQka-8R2fZuXJN-38" value="N達o" style="text;html=1;align=center;verticalAlign=middle;resizable=0;points=[];autosize=1;strokeColor=none;fillColor=none;" vertex="1" parent="1">
          <mxGeometry x="240" y="450" width="40" height="20" as="geometry" />
        </mxCell>
        <mxCell id="lGMY2SIQka-8R2fZuXJN-39" value="N達o" style="text;html=1;align=center;verticalAlign=middle;resizable=0;points=[];autosize=1;strokeColor=none;fillColor=none;" vertex="1" parent="1">
          <mxGeometry x="310" y="270" width="40" height="20" as="geometry" />
        </mxCell>
        <mxCell id="lGMY2SIQka-8R2fZuXJN-40" value="Sim" style="text;html=1;align=center;verticalAlign=middle;resizable=0;points=[];autosize=1;strokeColor=none;fillColor=none;" vertex="1" parent="1">
          <mxGeometry x="240" y="630" width="40" height="20" as="geometry" />
        </mxCell>
        <mxCell id="lGMY2SIQka-8R2fZuXJN-41" value="Sim" style="text;html=1;align=center;verticalAlign=middle;resizable=0;points=[];autosize=1;strokeColor=none;fillColor=none;" vertex="1" parent="1">
          <mxGeometry x="140" y="540" width="40" height="20" as="geometry" />
        </mxCell>
        <mxCell id="lGMY2SIQka-8R2fZuXJN-42" value="Sim" style="text;html=1;align=center;verticalAlign=middle;resizable=0;points=[];autosize=1;strokeColor=none;fillColor=none;" vertex="1" parent="1">
          <mxGeometry x="410" y="200" width="40" height="20" as="geometry" />
        </mxCell>
      </root>
    </mxGraphModel>
  </diagram>
</mxfile>
